<?xml version="1.0" encoding="UTF-8"?>
<svg xmlns="http://www.w3.org/2000/svg" xmlns:xlink="http://www.w3.org/1999/xlink" width="467.432pt" height="68.506pt" viewBox="0 0 467.432 68.506">
<defs>
<g>
<g id="glyph-0-0">
<path d="M 3.59375 -1.421875 C 3.53125 -1.21875 3.53125 -1.1875 3.375 -0.96875 C 3.109375 -0.640625 2.578125 -0.125 2.015625 -0.125 C 1.53125 -0.125 1.25 -0.5625 1.25 -1.265625 C 1.25 -1.921875 1.625 -3.265625 1.859375 -3.765625 C 2.265625 -4.609375 2.828125 -5.03125 3.28125 -5.03125 C 4.078125 -5.03125 4.234375 -4.046875 4.234375 -3.953125 C 4.234375 -3.9375 4.203125 -3.796875 4.1875 -3.765625 Z M 4.359375 -4.484375 C 4.234375 -4.796875 3.90625 -5.265625 3.28125 -5.265625 C 1.9375 -5.265625 0.484375 -3.53125 0.484375 -1.75 C 0.484375 -0.578125 1.171875 0.125 1.984375 0.125 C 2.640625 0.125 3.203125 -0.390625 3.53125 -0.78125 C 3.65625 -0.078125 4.21875 0.125 4.578125 0.125 C 4.9375 0.125 5.21875 -0.09375 5.4375 -0.53125 C 5.625 -0.9375 5.796875 -1.65625 5.796875 -1.703125 C 5.796875 -1.765625 5.75 -1.8125 5.671875 -1.8125 C 5.5625 -1.8125 5.5625 -1.75 5.515625 -1.578125 C 5.328125 -0.875 5.109375 -0.125 4.609375 -0.125 C 4.265625 -0.125 4.25 -0.4375 4.25 -0.671875 C 4.25 -0.9375 4.28125 -1.078125 4.390625 -1.546875 C 4.46875 -1.84375 4.53125 -2.109375 4.625 -2.453125 C 5.0625 -4.25 5.171875 -4.671875 5.171875 -4.75 C 5.171875 -4.90625 5.046875 -5.046875 4.859375 -5.046875 C 4.484375 -5.046875 4.390625 -4.625 4.359375 -4.484375 Z M 4.359375 -4.484375 "/>
</g>
<g id="glyph-1-0">
<path d="M 5.359375 -3.828125 C 5.359375 -4.8125 5.296875 -5.78125 4.859375 -6.6875 C 4.375 -7.6875 3.515625 -7.953125 2.921875 -7.953125 C 2.234375 -7.953125 1.390625 -7.609375 0.9375 -6.609375 C 0.609375 -5.859375 0.484375 -5.109375 0.484375 -3.828125 C 0.484375 -2.671875 0.578125 -1.796875 1 -0.9375 C 1.46875 -0.03125 2.296875 0.25 2.921875 0.25 C 3.953125 0.25 4.546875 -0.375 4.90625 -1.0625 C 5.328125 -1.953125 5.359375 -3.125 5.359375 -3.828125 Z M 2.921875 0.015625 C 2.53125 0.015625 1.75 -0.203125 1.53125 -1.5 C 1.40625 -2.21875 1.40625 -3.125 1.40625 -3.96875 C 1.40625 -4.953125 1.40625 -5.828125 1.59375 -6.53125 C 1.796875 -7.34375 2.40625 -7.703125 2.921875 -7.703125 C 3.375 -7.703125 4.0625 -7.4375 4.296875 -6.40625 C 4.453125 -5.71875 4.453125 -4.78125 4.453125 -3.96875 C 4.453125 -3.171875 4.453125 -2.265625 4.3125 -1.53125 C 4.09375 -0.21875 3.328125 0.015625 2.921875 0.015625 Z M 2.921875 0.015625 "/>
</g>
<g id="glyph-1-1">
<path d="M 3.4375 -7.65625 C 3.4375 -7.9375 3.4375 -7.953125 3.203125 -7.953125 C 2.921875 -7.625 2.3125 -7.1875 1.09375 -7.1875 L 1.09375 -6.84375 C 1.359375 -6.84375 1.953125 -6.84375 2.625 -7.140625 L 2.625 -0.921875 C 2.625 -0.484375 2.578125 -0.34375 1.53125 -0.34375 L 1.15625 -0.34375 L 1.15625 0 C 1.484375 -0.03125 2.640625 -0.03125 3.03125 -0.03125 C 3.4375 -0.03125 4.578125 -0.03125 4.90625 0 L 4.90625 -0.34375 L 4.53125 -0.34375 C 3.484375 -0.34375 3.4375 -0.484375 3.4375 -0.921875 Z M 3.4375 -7.65625 "/>
</g>
<g id="glyph-1-2">
<path d="M 5.265625 -2.015625 L 5 -2.015625 C 4.953125 -1.8125 4.859375 -1.140625 4.75 -0.953125 C 4.65625 -0.84375 3.984375 -0.84375 3.625 -0.84375 L 1.40625 -0.84375 C 1.734375 -1.125 2.46875 -1.890625 2.765625 -2.171875 C 4.59375 -3.84375 5.265625 -4.46875 5.265625 -5.65625 C 5.265625 -7.03125 4.171875 -7.953125 2.78125 -7.953125 C 1.40625 -7.953125 0.578125 -6.765625 0.578125 -5.734375 C 0.578125 -5.125 1.109375 -5.125 1.140625 -5.125 C 1.40625 -5.125 1.703125 -5.3125 1.703125 -5.6875 C 1.703125 -6.03125 1.484375 -6.25 1.140625 -6.25 C 1.046875 -6.25 1.015625 -6.25 0.984375 -6.234375 C 1.203125 -7.046875 1.859375 -7.609375 2.625 -7.609375 C 3.640625 -7.609375 4.265625 -6.75 4.265625 -5.65625 C 4.265625 -4.640625 3.6875 -3.75 3 -2.984375 L 0.578125 -0.28125 L 0.578125 0 L 4.953125 0 Z M 5.265625 -2.015625 "/>
</g>
<g id="glyph-1-3">
<path d="M 2.203125 -4.296875 C 2 -4.28125 1.953125 -4.265625 1.953125 -4.15625 C 1.953125 -4.046875 2.015625 -4.046875 2.21875 -4.046875 L 2.765625 -4.046875 C 3.796875 -4.046875 4.25 -3.203125 4.25 -2.0625 C 4.25 -0.484375 3.4375 -0.078125 2.84375 -0.078125 C 2.265625 -0.078125 1.296875 -0.34375 0.9375 -1.140625 C 1.328125 -1.078125 1.671875 -1.296875 1.671875 -1.71875 C 1.671875 -2.0625 1.421875 -2.3125 1.09375 -2.3125 C 0.796875 -2.3125 0.484375 -2.140625 0.484375 -1.6875 C 0.484375 -0.625 1.546875 0.25 2.875 0.25 C 4.296875 0.25 5.359375 -0.84375 5.359375 -2.046875 C 5.359375 -3.140625 4.46875 -4 3.328125 -4.203125 C 4.359375 -4.5 5.03125 -5.375 5.03125 -6.3125 C 5.03125 -7.25 4.046875 -7.953125 2.890625 -7.953125 C 1.703125 -7.953125 0.8125 -7.21875 0.8125 -6.34375 C 0.8125 -5.875 1.1875 -5.765625 1.359375 -5.765625 C 1.609375 -5.765625 1.90625 -5.953125 1.90625 -6.3125 C 1.90625 -6.6875 1.609375 -6.859375 1.34375 -6.859375 C 1.28125 -6.859375 1.25 -6.859375 1.21875 -6.84375 C 1.671875 -7.65625 2.796875 -7.65625 2.859375 -7.65625 C 3.25 -7.65625 4.03125 -7.484375 4.03125 -6.3125 C 4.03125 -6.078125 4 -5.421875 3.640625 -4.90625 C 3.28125 -4.375 2.875 -4.34375 2.5625 -4.328125 Z M 2.203125 -4.296875 "/>
</g>
<g id="glyph-1-4">
<path d="M 4.3125 -7.78125 C 4.3125 -8.015625 4.3125 -8.0625 4.140625 -8.0625 C 4.046875 -8.0625 4.015625 -8.0625 3.921875 -7.921875 L 0.328125 -2.34375 L 0.328125 -2 L 3.46875 -2 L 3.46875 -0.90625 C 3.46875 -0.46875 3.4375 -0.34375 2.5625 -0.34375 L 2.328125 -0.34375 L 2.328125 0 C 2.609375 -0.03125 3.546875 -0.03125 3.890625 -0.03125 C 4.21875 -0.03125 5.171875 -0.03125 5.453125 0 L 5.453125 -0.34375 L 5.21875 -0.34375 C 4.34375 -0.34375 4.3125 -0.46875 4.3125 -0.90625 L 4.3125 -2 L 5.515625 -2 L 5.515625 -2.34375 L 4.3125 -2.34375 Z M 3.53125 -6.84375 L 3.53125 -2.34375 L 0.625 -2.34375 Z M 3.53125 -6.84375 "/>
</g>
<g id="glyph-1-5">
<path d="M 1.53125 -6.84375 C 2.046875 -6.6875 2.46875 -6.671875 2.59375 -6.671875 C 3.9375 -6.671875 4.8125 -7.65625 4.8125 -7.828125 C 4.8125 -7.875 4.78125 -7.9375 4.703125 -7.9375 C 4.6875 -7.9375 4.65625 -7.9375 4.546875 -7.890625 C 3.890625 -7.609375 3.3125 -7.5625 3 -7.5625 C 2.21875 -7.5625 1.65625 -7.8125 1.421875 -7.90625 C 1.34375 -7.9375 1.3125 -7.9375 1.296875 -7.9375 C 1.203125 -7.9375 1.203125 -7.859375 1.203125 -7.671875 L 1.203125 -4.125 C 1.203125 -3.90625 1.203125 -3.84375 1.34375 -3.84375 C 1.40625 -3.84375 1.421875 -3.84375 1.546875 -4 C 1.875 -4.484375 2.4375 -4.765625 3.03125 -4.765625 C 3.671875 -4.765625 3.984375 -4.1875 4.078125 -3.984375 C 4.28125 -3.515625 4.296875 -2.921875 4.296875 -2.46875 C 4.296875 -2.015625 4.296875 -1.34375 3.953125 -0.796875 C 3.6875 -0.375 3.234375 -0.078125 2.703125 -0.078125 C 1.90625 -0.078125 1.140625 -0.609375 0.921875 -1.484375 C 0.984375 -1.453125 1.046875 -1.453125 1.109375 -1.453125 C 1.3125 -1.453125 1.640625 -1.5625 1.640625 -1.96875 C 1.640625 -2.3125 1.40625 -2.5 1.109375 -2.5 C 0.890625 -2.5 0.578125 -2.390625 0.578125 -1.921875 C 0.578125 -0.90625 1.40625 0.25 2.71875 0.25 C 4.078125 0.25 5.265625 -0.890625 5.265625 -2.40625 C 5.265625 -3.828125 4.296875 -5.015625 3.046875 -5.015625 C 2.359375 -5.015625 1.84375 -4.703125 1.53125 -4.375 Z M 1.53125 -6.84375 "/>
</g>
<g id="glyph-1-6">
<path d="M 1.46875 -4.15625 C 1.46875 -7.1875 2.9375 -7.65625 3.578125 -7.65625 C 4.015625 -7.65625 4.453125 -7.53125 4.671875 -7.171875 C 4.53125 -7.171875 4.078125 -7.171875 4.078125 -6.6875 C 4.078125 -6.421875 4.25 -6.1875 4.5625 -6.1875 C 4.859375 -6.1875 5.0625 -6.375 5.0625 -6.71875 C 5.0625 -7.34375 4.609375 -7.953125 3.578125 -7.953125 C 2.0625 -7.953125 0.484375 -6.40625 0.484375 -3.78125 C 0.484375 -0.484375 1.921875 0.25 2.9375 0.25 C 4.25 0.25 5.359375 -0.890625 5.359375 -2.4375 C 5.359375 -4.03125 4.25 -5.09375 3.046875 -5.09375 C 1.984375 -5.09375 1.59375 -4.171875 1.46875 -3.84375 Z M 2.9375 -0.078125 C 2.1875 -0.078125 1.828125 -0.734375 1.71875 -0.984375 C 1.609375 -1.296875 1.5 -1.890625 1.5 -2.71875 C 1.5 -3.671875 1.921875 -4.859375 3 -4.859375 C 3.65625 -4.859375 4 -4.40625 4.1875 -4 C 4.375 -3.5625 4.375 -2.96875 4.375 -2.453125 C 4.375 -1.84375 4.375 -1.296875 4.140625 -0.84375 C 3.84375 -0.28125 3.421875 -0.078125 2.9375 -0.078125 Z M 2.9375 -0.078125 "/>
</g>
<g id="glyph-1-7">
<path d="M 5.671875 -7.421875 L 5.671875 -7.703125 L 2.796875 -7.703125 C 1.34375 -7.703125 1.328125 -7.859375 1.28125 -8.078125 L 1.015625 -8.078125 L 0.640625 -5.6875 L 0.90625 -5.6875 C 0.9375 -5.90625 1.046875 -6.640625 1.203125 -6.78125 C 1.296875 -6.84375 2.203125 -6.84375 2.359375 -6.84375 L 4.90625 -6.84375 L 3.640625 -5.03125 C 3.3125 -4.5625 2.109375 -2.609375 2.109375 -0.359375 C 2.109375 -0.234375 2.109375 0.25 2.59375 0.25 C 3.09375 0.25 3.09375 -0.21875 3.09375 -0.375 L 3.09375 -0.96875 C 3.09375 -2.75 3.375 -4.140625 3.9375 -4.9375 Z M 5.671875 -7.421875 "/>
</g>
<g id="glyph-1-8">
<path d="M 3.5625 -4.3125 C 4.15625 -4.640625 5.03125 -5.1875 5.03125 -6.1875 C 5.03125 -7.234375 4.03125 -7.953125 2.921875 -7.953125 C 1.75 -7.953125 0.8125 -7.078125 0.8125 -5.984375 C 0.8125 -5.578125 0.9375 -5.171875 1.265625 -4.765625 C 1.40625 -4.609375 1.40625 -4.609375 2.25 -4.015625 C 1.09375 -3.484375 0.484375 -2.671875 0.484375 -1.8125 C 0.484375 -0.53125 1.703125 0.25 2.921875 0.25 C 4.25 0.25 5.359375 -0.734375 5.359375 -1.984375 C 5.359375 -3.203125 4.5 -3.734375 3.5625 -4.3125 Z M 1.9375 -5.390625 C 1.78125 -5.5 1.296875 -5.8125 1.296875 -6.390625 C 1.296875 -7.171875 2.109375 -7.65625 2.921875 -7.65625 C 3.78125 -7.65625 4.546875 -7.046875 4.546875 -6.1875 C 4.546875 -5.453125 4.015625 -4.859375 3.328125 -4.484375 Z M 2.5 -3.84375 L 3.9375 -2.90625 C 4.25 -2.703125 4.8125 -2.328125 4.8125 -1.609375 C 4.8125 -0.6875 3.890625 -0.078125 2.921875 -0.078125 C 1.90625 -0.078125 1.046875 -0.8125 1.046875 -1.8125 C 1.046875 -2.734375 1.71875 -3.484375 2.5 -3.84375 Z M 2.5 -3.84375 "/>
</g>
<g id="glyph-1-9">
<path d="M 4.375 -3.484375 C 4.375 -0.65625 3.125 -0.078125 2.40625 -0.078125 C 2.109375 -0.078125 1.484375 -0.109375 1.1875 -0.53125 L 1.25 -0.53125 C 1.34375 -0.5 1.765625 -0.578125 1.765625 -1.015625 C 1.765625 -1.28125 1.59375 -1.5 1.28125 -1.5 C 0.96875 -1.5 0.78125 -1.296875 0.78125 -0.984375 C 0.78125 -0.25 1.375 0.25 2.421875 0.25 C 3.90625 0.25 5.359375 -1.34375 5.359375 -3.9375 C 5.359375 -7.140625 4.015625 -7.953125 2.96875 -7.953125 C 1.65625 -7.953125 0.484375 -6.84375 0.484375 -5.265625 C 0.484375 -3.6875 1.609375 -2.625 2.796875 -2.625 C 3.6875 -2.625 4.140625 -3.265625 4.375 -3.875 Z M 2.84375 -2.859375 C 2.09375 -2.859375 1.765625 -3.46875 1.65625 -3.6875 C 1.46875 -4.140625 1.46875 -4.71875 1.46875 -5.265625 C 1.46875 -5.921875 1.46875 -6.5 1.78125 -7 C 2 -7.3125 2.3125 -7.65625 2.96875 -7.65625 C 3.640625 -7.65625 4 -7.0625 4.109375 -6.796875 C 4.34375 -6.203125 4.34375 -5.1875 4.34375 -5.015625 C 4.34375 -4 3.890625 -2.859375 2.84375 -2.859375 Z M 2.84375 -2.859375 "/>
</g>
</g>
</defs>
<path fill="none" stroke-width="0.79701" stroke-linecap="butt" stroke-linejoin="miter" stroke="rgb(0%, 0%, 0%)" stroke-opacity="1" stroke-miterlimit="10" d="M 0.000125 0.000125 L 445.754031 0.000125 " transform="matrix(1, 0, 0, -1, 6.828, 46.422)"/>
<path fill="none" stroke-width="0.6376" stroke-linecap="round" stroke-linejoin="round" stroke="rgb(0%, 0%, 0%)" stroke-opacity="1" stroke-miterlimit="10" d="M -1.555526 2.070437 C -1.422714 1.297 -0.00083875 0.129031 0.389786 0.000125 C -0.00083875 -0.128781 -1.422714 -1.29675 -1.555526 -2.074094 " transform="matrix(1, 0, 0, -1, 452.58287, 46.422)"/>
<g fill="rgb(0%, 0%, 0%)" fill-opacity="1">
<use xlink:href="#glyph-0-0" x="457.385" y="55.67"/>
</g>
<path fill="none" stroke-width="0.3985" stroke-linecap="butt" stroke-linejoin="miter" stroke="rgb(0%, 0%, 0%)" stroke-opacity="1" stroke-miterlimit="10" d="M 0.000125 -6.378781 L 0.000125 6.379031 " transform="matrix(1, 0, 0, -1, 6.828, 46.422)"/>
<g fill="rgb(0%, 0%, 0%)" fill-opacity="1">
<use xlink:href="#glyph-1-0" x="3.902" y="64.604"/>
</g>
<path fill="none" stroke-width="0.3985" stroke-linecap="butt" stroke-linejoin="miter" stroke="rgb(0%, 0%, 0%)" stroke-opacity="1" stroke-miterlimit="10" d="M 42.519656 -6.378781 L 42.519656 6.379031 " transform="matrix(1, 0, 0, -1, 6.828, 46.422)"/>
<g fill="rgb(0%, 0%, 0%)" fill-opacity="1">
<use xlink:href="#glyph-1-1" x="46.421" y="64.604"/>
</g>
<path fill="none" stroke-width="0.3985" stroke-linecap="butt" stroke-linejoin="miter" stroke="rgb(0%, 0%, 0%)" stroke-opacity="1" stroke-miterlimit="10" d="M 85.039187 -6.378781 L 85.039187 6.379031 " transform="matrix(1, 0, 0, -1, 6.828, 46.422)"/>
<g fill="rgb(0%, 0%, 0%)" fill-opacity="1">
<use xlink:href="#glyph-1-2" x="88.941" y="64.604"/>
</g>
<path fill="none" stroke-width="0.3985" stroke-linecap="butt" stroke-linejoin="miter" stroke="rgb(0%, 0%, 0%)" stroke-opacity="1" stroke-miterlimit="10" d="M 127.558719 -6.378781 L 127.558719 6.379031 " transform="matrix(1, 0, 0, -1, 6.828, 46.422)"/>
<g fill="rgb(0%, 0%, 0%)" fill-opacity="1">
<use xlink:href="#glyph-1-3" x="131.461" y="64.605"/>
</g>
<path fill="none" stroke-width="0.3985" stroke-linecap="butt" stroke-linejoin="miter" stroke="rgb(0%, 0%, 0%)" stroke-opacity="1" stroke-miterlimit="10" d="M 170.082156 -6.378781 L 170.082156 6.379031 " transform="matrix(1, 0, 0, -1, 6.828, 46.422)"/>
<g fill="rgb(0%, 0%, 0%)" fill-opacity="1">
<use xlink:href="#glyph-1-4" x="173.98" y="64.605"/>
</g>
<path fill="none" stroke-width="0.3985" stroke-linecap="butt" stroke-linejoin="miter" stroke="rgb(0%, 0%, 0%)" stroke-opacity="1" stroke-miterlimit="10" d="M 212.601687 -6.378781 L 212.601687 6.379031 " transform="matrix(1, 0, 0, -1, 6.828, 46.422)"/>
<g fill="rgb(0%, 0%, 0%)" fill-opacity="1">
<use xlink:href="#glyph-1-5" x="216.5" y="64.605"/>
</g>
<path fill="none" stroke-width="0.3985" stroke-linecap="butt" stroke-linejoin="miter" stroke="rgb(0%, 0%, 0%)" stroke-opacity="1" stroke-miterlimit="10" d="M 255.121219 -6.378781 L 255.121219 6.379031 " transform="matrix(1, 0, 0, -1, 6.828, 46.422)"/>
<g fill="rgb(0%, 0%, 0%)" fill-opacity="1">
<use xlink:href="#glyph-1-6" x="259.02" y="64.605"/>
</g>
<path fill="none" stroke-width="0.3985" stroke-linecap="butt" stroke-linejoin="miter" stroke="rgb(0%, 0%, 0%)" stroke-opacity="1" stroke-miterlimit="10" d="M 297.64075 -6.378781 L 297.64075 6.379031 " transform="matrix(1, 0, 0, -1, 6.828, 46.422)"/>
<g fill="rgb(0%, 0%, 0%)" fill-opacity="1">
<use xlink:href="#glyph-1-7" x="301.539" y="64.605"/>
</g>
<path fill="none" stroke-width="0.3985" stroke-linecap="butt" stroke-linejoin="miter" stroke="rgb(0%, 0%, 0%)" stroke-opacity="1" stroke-miterlimit="10" d="M 340.160281 -6.378781 L 340.160281 6.379031 " transform="matrix(1, 0, 0, -1, 6.828, 46.422)"/>
<g fill="rgb(0%, 0%, 0%)" fill-opacity="1">
<use xlink:href="#glyph-1-8" x="344.059" y="64.605"/>
</g>
<path fill="none" stroke-width="0.3985" stroke-linecap="butt" stroke-linejoin="miter" stroke="rgb(0%, 0%, 0%)" stroke-opacity="1" stroke-miterlimit="10" d="M 382.683719 -6.378781 L 382.683719 6.379031 " transform="matrix(1, 0, 0, -1, 6.828, 46.422)"/>
<g fill="rgb(0%, 0%, 0%)" fill-opacity="1">
<use xlink:href="#glyph-1-9" x="386.579" y="64.605"/>
</g>
<path fill="none" stroke-width="0.3985" stroke-linecap="butt" stroke-linejoin="miter" stroke="rgb(0%, 0%, 0%)" stroke-opacity="1" stroke-miterlimit="10" d="M 425.20325 -6.378781 L 425.20325 6.379031 " transform="matrix(1, 0, 0, -1, 6.828, 46.422)"/>
<g fill="rgb(0%, 0%, 0%)" fill-opacity="1">
<use xlink:href="#glyph-1-1" x="426.172" y="64.605"/>
<use xlink:href="#glyph-1-0" x="432.025266" y="64.605"/>
</g>
<path fill="none" stroke-width="2.98883" stroke-linecap="butt" stroke-linejoin="miter" stroke="rgb(0%, 67.83905%, 93.728638%)" stroke-opacity="1" stroke-miterlimit="10" d="M 127.558719 0.000125 L 212.601687 0.000125 " transform="matrix(1, 0, 0, -1, 6.828, 46.422)"/>
<path fill-rule="nonzero" fill="rgb(0%, 67.83905%, 93.728638%)" fill-opacity="1" stroke-width="0.79701" stroke-linecap="butt" stroke-linejoin="miter" stroke="rgb(0%, 0%, 0%)" stroke-opacity="1" stroke-miterlimit="10" d="M 132.043094 0.000125 C 132.043094 2.476687 130.035281 4.4845 127.558719 4.4845 C 125.086062 4.4845 123.07825 2.476687 123.07825 0.000125 C 123.07825 -2.476438 125.086062 -4.48425 127.558719 -4.48425 C 130.035281 -4.48425 132.043094 -2.476438 132.043094 0.000125 Z M 132.043094 0.000125 " transform="matrix(1, 0, 0, -1, 6.828, 46.422)"/>
<path fill-rule="nonzero" fill="rgb(0%, 67.83905%, 93.728638%)" fill-opacity="1" stroke-width="0.79701" stroke-linecap="butt" stroke-linejoin="miter" stroke="rgb(0%, 0%, 0%)" stroke-opacity="1" stroke-miterlimit="10" d="M 217.086062 0.000125 C 217.086062 2.476687 215.07825 4.4845 212.601687 4.4845 C 210.125125 4.4845 208.117312 2.476687 208.117312 0.000125 C 208.117312 -2.476438 210.125125 -4.48425 212.601687 -4.48425 C 215.07825 -4.48425 217.086062 -2.476438 217.086062 0.000125 Z M 217.086062 0.000125 " transform="matrix(1, 0, 0, -1, 6.828, 46.422)"/>
<path fill-rule="nonzero" fill="rgb(100%, 50%, 0%)" fill-opacity="1" stroke-width="0.79701" stroke-linecap="butt" stroke-linejoin="miter" stroke="rgb(0%, 0%, 0%)" stroke-opacity="1" stroke-miterlimit="10" d="M 176.804812 0.000125 C 176.804812 3.714969 173.793094 6.726687 170.082156 6.726687 C 166.367312 6.726687 163.355594 3.714969 163.355594 0.000125 C 163.355594 -3.714719 166.367312 -6.726438 170.082156 -6.726438 C 173.793094 -6.726438 176.804812 -3.714719 176.804812 0.000125 Z M 176.804812 0.000125 " transform="matrix(1, 0, 0, -1, 6.828, 46.422)"/>
</svg>
