<?xml version="1.0" encoding="UTF-8"?>
<svg xmlns="http://www.w3.org/2000/svg" xmlns:xlink="http://www.w3.org/1999/xlink" width="466.264pt" height="72.491pt" viewBox="0 0 466.264 72.491">
<defs>
<g>
<g id="glyph-0-0">
<path d="M 4.65625 -3.328125 L 2.265625 -5.703125 C 2.109375 -5.84375 2.09375 -5.875 2 -5.875 C 1.875 -5.875 1.75 -5.765625 1.75 -5.625 C 1.75 -5.546875 1.78125 -5.515625 1.90625 -5.390625 L 4.296875 -2.984375 L 1.90625 -0.578125 C 1.78125 -0.453125 1.75 -0.4375 1.75 -0.34375 C 1.75 -0.21875 1.875 -0.109375 2 -0.109375 C 2.09375 -0.109375 2.109375 -0.125 2.265625 -0.28125 L 4.640625 -2.65625 L 7.109375 -0.171875 C 7.140625 -0.171875 7.21875 -0.109375 7.296875 -0.109375 C 7.4375 -0.109375 7.53125 -0.21875 7.53125 -0.34375 C 7.53125 -0.375 7.53125 -0.421875 7.5 -0.484375 C 7.484375 -0.5 5.578125 -2.375 4.984375 -2.984375 L 7.171875 -5.171875 C 7.234375 -5.25 7.40625 -5.40625 7.46875 -5.46875 C 7.484375 -5.5 7.53125 -5.546875 7.53125 -5.625 C 7.53125 -5.765625 7.4375 -5.875 7.296875 -5.875 C 7.203125 -5.875 7.140625 -5.828125 7.015625 -5.6875 Z M 4.65625 -3.328125 "/>
</g>
<g id="glyph-1-0">
<path d="M 2.765625 -8 C 2.765625 -8.046875 2.796875 -8.109375 2.796875 -8.171875 C 2.796875 -8.296875 2.671875 -8.296875 2.65625 -8.296875 C 2.640625 -8.296875 2.21875 -8.265625 2 -8.234375 C 1.796875 -8.21875 1.609375 -8.203125 1.40625 -8.1875 C 1.109375 -8.15625 1.03125 -8.15625 1.03125 -7.9375 C 1.03125 -7.8125 1.140625 -7.8125 1.265625 -7.8125 C 1.875 -7.8125 1.875 -7.703125 1.875 -7.59375 C 1.875 -7.5 1.78125 -7.15625 1.734375 -6.9375 L 1.453125 -5.796875 C 1.328125 -5.3125 0.640625 -2.609375 0.59375 -2.390625 C 0.53125 -2.09375 0.53125 -1.890625 0.53125 -1.734375 C 0.53125 -0.515625 1.21875 0.125 2 0.125 C 3.375 0.125 4.8125 -1.65625 4.8125 -3.390625 C 4.8125 -4.5 4.203125 -5.265625 3.296875 -5.265625 C 2.671875 -5.265625 2.109375 -4.75 1.890625 -4.515625 Z M 2.015625 -0.125 C 1.625 -0.125 1.203125 -0.40625 1.203125 -1.34375 C 1.203125 -1.734375 1.25 -1.953125 1.453125 -2.796875 C 1.5 -2.953125 1.6875 -3.71875 1.734375 -3.875 C 1.75 -3.96875 2.46875 -5.03125 3.28125 -5.03125 C 3.796875 -5.03125 4.046875 -4.5 4.046875 -3.890625 C 4.046875 -3.3125 3.703125 -1.953125 3.40625 -1.34375 C 3.109375 -0.6875 2.5625 -0.125 2.015625 -0.125 Z M 2.015625 -0.125 "/>
</g>
<g id="glyph-2-0">
<path d="M 5.359375 -3.828125 C 5.359375 -4.8125 5.296875 -5.78125 4.859375 -6.6875 C 4.375 -7.6875 3.515625 -7.953125 2.921875 -7.953125 C 2.234375 -7.953125 1.390625 -7.609375 0.9375 -6.609375 C 0.609375 -5.859375 0.484375 -5.109375 0.484375 -3.828125 C 0.484375 -2.671875 0.578125 -1.796875 1 -0.9375 C 1.46875 -0.03125 2.296875 0.25 2.921875 0.25 C 3.953125 0.25 4.546875 -0.375 4.90625 -1.0625 C 5.328125 -1.953125 5.359375 -3.125 5.359375 -3.828125 Z M 2.921875 0.015625 C 2.53125 0.015625 1.75 -0.203125 1.53125 -1.5 C 1.40625 -2.21875 1.40625 -3.125 1.40625 -3.96875 C 1.40625 -4.953125 1.40625 -5.828125 1.59375 -6.53125 C 1.796875 -7.34375 2.40625 -7.703125 2.921875 -7.703125 C 3.375 -7.703125 4.0625 -7.4375 4.296875 -6.40625 C 4.453125 -5.71875 4.453125 -4.78125 4.453125 -3.96875 C 4.453125 -3.171875 4.453125 -2.265625 4.3125 -1.53125 C 4.09375 -0.21875 3.328125 0.015625 2.921875 0.015625 Z M 2.921875 0.015625 "/>
</g>
<g id="glyph-2-1">
<path d="M 3.4375 -7.65625 C 3.4375 -7.9375 3.4375 -7.953125 3.203125 -7.953125 C 2.921875 -7.625 2.3125 -7.1875 1.09375 -7.1875 L 1.09375 -6.84375 C 1.359375 -6.84375 1.953125 -6.84375 2.625 -7.140625 L 2.625 -0.921875 C 2.625 -0.484375 2.578125 -0.34375 1.53125 -0.34375 L 1.15625 -0.34375 L 1.15625 0 C 1.484375 -0.03125 2.640625 -0.03125 3.03125 -0.03125 C 3.4375 -0.03125 4.578125 -0.03125 4.90625 0 L 4.90625 -0.34375 L 4.53125 -0.34375 C 3.484375 -0.34375 3.4375 -0.484375 3.4375 -0.921875 Z M 3.4375 -7.65625 "/>
</g>
<g id="glyph-2-2">
<path d="M 5.265625 -2.015625 L 5 -2.015625 C 4.953125 -1.8125 4.859375 -1.140625 4.75 -0.953125 C 4.65625 -0.84375 3.984375 -0.84375 3.625 -0.84375 L 1.40625 -0.84375 C 1.734375 -1.125 2.46875 -1.890625 2.765625 -2.171875 C 4.59375 -3.84375 5.265625 -4.46875 5.265625 -5.65625 C 5.265625 -7.03125 4.171875 -7.953125 2.78125 -7.953125 C 1.40625 -7.953125 0.578125 -6.765625 0.578125 -5.734375 C 0.578125 -5.125 1.109375 -5.125 1.140625 -5.125 C 1.40625 -5.125 1.703125 -5.3125 1.703125 -5.6875 C 1.703125 -6.03125 1.484375 -6.25 1.140625 -6.25 C 1.046875 -6.25 1.015625 -6.25 0.984375 -6.234375 C 1.203125 -7.046875 1.859375 -7.609375 2.625 -7.609375 C 3.640625 -7.609375 4.265625 -6.75 4.265625 -5.65625 C 4.265625 -4.640625 3.6875 -3.75 3 -2.984375 L 0.578125 -0.28125 L 0.578125 0 L 4.953125 0 Z M 5.265625 -2.015625 "/>
</g>
<g id="glyph-2-3">
<path d="M 2.203125 -4.296875 C 2 -4.28125 1.953125 -4.265625 1.953125 -4.15625 C 1.953125 -4.046875 2.015625 -4.046875 2.21875 -4.046875 L 2.765625 -4.046875 C 3.796875 -4.046875 4.25 -3.203125 4.25 -2.0625 C 4.25 -0.484375 3.4375 -0.078125 2.84375 -0.078125 C 2.265625 -0.078125 1.296875 -0.34375 0.9375 -1.140625 C 1.328125 -1.078125 1.671875 -1.296875 1.671875 -1.71875 C 1.671875 -2.0625 1.421875 -2.3125 1.09375 -2.3125 C 0.796875 -2.3125 0.484375 -2.140625 0.484375 -1.6875 C 0.484375 -0.625 1.546875 0.25 2.875 0.25 C 4.296875 0.25 5.359375 -0.84375 5.359375 -2.046875 C 5.359375 -3.140625 4.46875 -4 3.328125 -4.203125 C 4.359375 -4.5 5.03125 -5.375 5.03125 -6.3125 C 5.03125 -7.25 4.046875 -7.953125 2.890625 -7.953125 C 1.703125 -7.953125 0.8125 -7.21875 0.8125 -6.34375 C 0.8125 -5.875 1.1875 -5.765625 1.359375 -5.765625 C 1.609375 -5.765625 1.90625 -5.953125 1.90625 -6.3125 C 1.90625 -6.6875 1.609375 -6.859375 1.34375 -6.859375 C 1.28125 -6.859375 1.25 -6.859375 1.21875 -6.84375 C 1.671875 -7.65625 2.796875 -7.65625 2.859375 -7.65625 C 3.25 -7.65625 4.03125 -7.484375 4.03125 -6.3125 C 4.03125 -6.078125 4 -5.421875 3.640625 -4.90625 C 3.28125 -4.375 2.875 -4.34375 2.5625 -4.328125 Z M 2.203125 -4.296875 "/>
</g>
<g id="glyph-2-4">
<path d="M 4.3125 -7.78125 C 4.3125 -8.015625 4.3125 -8.0625 4.140625 -8.0625 C 4.046875 -8.0625 4.015625 -8.0625 3.921875 -7.921875 L 0.328125 -2.34375 L 0.328125 -2 L 3.46875 -2 L 3.46875 -0.90625 C 3.46875 -0.46875 3.4375 -0.34375 2.5625 -0.34375 L 2.328125 -0.34375 L 2.328125 0 C 2.609375 -0.03125 3.546875 -0.03125 3.890625 -0.03125 C 4.21875 -0.03125 5.171875 -0.03125 5.453125 0 L 5.453125 -0.34375 L 5.21875 -0.34375 C 4.34375 -0.34375 4.3125 -0.46875 4.3125 -0.90625 L 4.3125 -2 L 5.515625 -2 L 5.515625 -2.34375 L 4.3125 -2.34375 Z M 3.53125 -6.84375 L 3.53125 -2.34375 L 0.625 -2.34375 Z M 3.53125 -6.84375 "/>
</g>
<g id="glyph-2-5">
<path d="M 1.53125 -6.84375 C 2.046875 -6.6875 2.46875 -6.671875 2.59375 -6.671875 C 3.9375 -6.671875 4.8125 -7.65625 4.8125 -7.828125 C 4.8125 -7.875 4.78125 -7.9375 4.703125 -7.9375 C 4.6875 -7.9375 4.65625 -7.9375 4.546875 -7.890625 C 3.890625 -7.609375 3.3125 -7.5625 3 -7.5625 C 2.21875 -7.5625 1.65625 -7.8125 1.421875 -7.90625 C 1.34375 -7.9375 1.3125 -7.9375 1.296875 -7.9375 C 1.203125 -7.9375 1.203125 -7.859375 1.203125 -7.671875 L 1.203125 -4.125 C 1.203125 -3.90625 1.203125 -3.84375 1.34375 -3.84375 C 1.40625 -3.84375 1.421875 -3.84375 1.546875 -4 C 1.875 -4.484375 2.4375 -4.765625 3.03125 -4.765625 C 3.671875 -4.765625 3.984375 -4.1875 4.078125 -3.984375 C 4.28125 -3.515625 4.296875 -2.921875 4.296875 -2.46875 C 4.296875 -2.015625 4.296875 -1.34375 3.953125 -0.796875 C 3.6875 -0.375 3.234375 -0.078125 2.703125 -0.078125 C 1.90625 -0.078125 1.140625 -0.609375 0.921875 -1.484375 C 0.984375 -1.453125 1.046875 -1.453125 1.109375 -1.453125 C 1.3125 -1.453125 1.640625 -1.5625 1.640625 -1.96875 C 1.640625 -2.3125 1.40625 -2.5 1.109375 -2.5 C 0.890625 -2.5 0.578125 -2.390625 0.578125 -1.921875 C 0.578125 -0.90625 1.40625 0.25 2.71875 0.25 C 4.078125 0.25 5.265625 -0.890625 5.265625 -2.40625 C 5.265625 -3.828125 4.296875 -5.015625 3.046875 -5.015625 C 2.359375 -5.015625 1.84375 -4.703125 1.53125 -4.375 Z M 1.53125 -6.84375 "/>
</g>
<g id="glyph-2-6">
<path d="M 1.46875 -4.15625 C 1.46875 -7.1875 2.9375 -7.65625 3.578125 -7.65625 C 4.015625 -7.65625 4.453125 -7.53125 4.671875 -7.171875 C 4.53125 -7.171875 4.078125 -7.171875 4.078125 -6.6875 C 4.078125 -6.421875 4.25 -6.1875 4.5625 -6.1875 C 4.859375 -6.1875 5.0625 -6.375 5.0625 -6.71875 C 5.0625 -7.34375 4.609375 -7.953125 3.578125 -7.953125 C 2.0625 -7.953125 0.484375 -6.40625 0.484375 -3.78125 C 0.484375 -0.484375 1.921875 0.25 2.9375 0.25 C 4.25 0.25 5.359375 -0.890625 5.359375 -2.4375 C 5.359375 -4.03125 4.25 -5.09375 3.046875 -5.09375 C 1.984375 -5.09375 1.59375 -4.171875 1.46875 -3.84375 Z M 2.9375 -0.078125 C 2.1875 -0.078125 1.828125 -0.734375 1.71875 -0.984375 C 1.609375 -1.296875 1.5 -1.890625 1.5 -2.71875 C 1.5 -3.671875 1.921875 -4.859375 3 -4.859375 C 3.65625 -4.859375 4 -4.40625 4.1875 -4 C 4.375 -3.5625 4.375 -2.96875 4.375 -2.453125 C 4.375 -1.84375 4.375 -1.296875 4.140625 -0.84375 C 3.84375 -0.28125 3.421875 -0.078125 2.9375 -0.078125 Z M 2.9375 -0.078125 "/>
</g>
<g id="glyph-2-7">
<path d="M 5.671875 -7.421875 L 5.671875 -7.703125 L 2.796875 -7.703125 C 1.34375 -7.703125 1.328125 -7.859375 1.28125 -8.078125 L 1.015625 -8.078125 L 0.640625 -5.6875 L 0.90625 -5.6875 C 0.9375 -5.90625 1.046875 -6.640625 1.203125 -6.78125 C 1.296875 -6.84375 2.203125 -6.84375 2.359375 -6.84375 L 4.90625 -6.84375 L 3.640625 -5.03125 C 3.3125 -4.5625 2.109375 -2.609375 2.109375 -0.359375 C 2.109375 -0.234375 2.109375 0.25 2.59375 0.25 C 3.09375 0.25 3.09375 -0.21875 3.09375 -0.375 L 3.09375 -0.96875 C 3.09375 -2.75 3.375 -4.140625 3.9375 -4.9375 Z M 5.671875 -7.421875 "/>
</g>
<g id="glyph-2-8">
<path d="M 3.5625 -4.3125 C 4.15625 -4.640625 5.03125 -5.1875 5.03125 -6.1875 C 5.03125 -7.234375 4.03125 -7.953125 2.921875 -7.953125 C 1.75 -7.953125 0.8125 -7.078125 0.8125 -5.984375 C 0.8125 -5.578125 0.9375 -5.171875 1.265625 -4.765625 C 1.40625 -4.609375 1.40625 -4.609375 2.25 -4.015625 C 1.09375 -3.484375 0.484375 -2.671875 0.484375 -1.8125 C 0.484375 -0.53125 1.703125 0.25 2.921875 0.25 C 4.25 0.25 5.359375 -0.734375 5.359375 -1.984375 C 5.359375 -3.203125 4.5 -3.734375 3.5625 -4.3125 Z M 1.9375 -5.390625 C 1.78125 -5.5 1.296875 -5.8125 1.296875 -6.390625 C 1.296875 -7.171875 2.109375 -7.65625 2.921875 -7.65625 C 3.78125 -7.65625 4.546875 -7.046875 4.546875 -6.1875 C 4.546875 -5.453125 4.015625 -4.859375 3.328125 -4.484375 Z M 2.5 -3.84375 L 3.9375 -2.90625 C 4.25 -2.703125 4.8125 -2.328125 4.8125 -1.609375 C 4.8125 -0.6875 3.890625 -0.078125 2.921875 -0.078125 C 1.90625 -0.078125 1.046875 -0.8125 1.046875 -1.8125 C 1.046875 -2.734375 1.71875 -3.484375 2.5 -3.84375 Z M 2.5 -3.84375 "/>
</g>
<g id="glyph-2-9">
<path d="M 4.375 -3.484375 C 4.375 -0.65625 3.125 -0.078125 2.40625 -0.078125 C 2.109375 -0.078125 1.484375 -0.109375 1.1875 -0.53125 L 1.25 -0.53125 C 1.34375 -0.5 1.765625 -0.578125 1.765625 -1.015625 C 1.765625 -1.28125 1.59375 -1.5 1.28125 -1.5 C 0.96875 -1.5 0.78125 -1.296875 0.78125 -0.984375 C 0.78125 -0.25 1.375 0.25 2.421875 0.25 C 3.90625 0.25 5.359375 -1.34375 5.359375 -3.9375 C 5.359375 -7.140625 4.015625 -7.953125 2.96875 -7.953125 C 1.65625 -7.953125 0.484375 -6.84375 0.484375 -5.265625 C 0.484375 -3.6875 1.609375 -2.625 2.796875 -2.625 C 3.6875 -2.625 4.140625 -3.265625 4.375 -3.875 Z M 2.84375 -2.859375 C 2.09375 -2.859375 1.765625 -3.46875 1.65625 -3.6875 C 1.46875 -4.140625 1.46875 -4.71875 1.46875 -5.265625 C 1.46875 -5.921875 1.46875 -6.5 1.78125 -7 C 2 -7.3125 2.3125 -7.65625 2.96875 -7.65625 C 3.640625 -7.65625 4 -7.0625 4.109375 -6.796875 C 4.34375 -6.203125 4.34375 -5.1875 4.34375 -5.015625 C 4.34375 -4 3.890625 -2.859375 2.84375 -2.859375 Z M 2.84375 -2.859375 "/>
</g>
</g>
</defs>
<g fill="rgb(0%, 0%, 0%)" fill-opacity="1">
<use xlink:href="#glyph-0-0" x="236.037" y="10.876"/>
</g>
<path fill="none" stroke-width="0.79701" stroke-linecap="butt" stroke-linejoin="miter" stroke="rgb(0%, 0%, 0%)" stroke-opacity="1" stroke-miterlimit="10" d="M 0.000125 0.00075 L 445.754031 0.00075 " transform="matrix(1, 0, 0, -1, 6.828, 50.407)"/>
<path fill="none" stroke-width="0.6376" stroke-linecap="round" stroke-linejoin="round" stroke="rgb(0%, 0%, 0%)" stroke-opacity="1" stroke-miterlimit="10" d="M -1.555526 2.071063 C -1.422714 1.293719 -0.00083875 0.129656 0.389786 0.00075 C -0.00083875 -0.128156 -1.422714 -1.296125 -1.555526 -2.073469 " transform="matrix(1, 0, 0, -1, 452.58287, 50.407)"/>
<g fill="rgb(0%, 0%, 0%)" fill-opacity="1">
<use xlink:href="#glyph-1-0" x="457.385" y="62.81"/>
</g>
<path fill="none" stroke-width="0.3985" stroke-linecap="butt" stroke-linejoin="miter" stroke="rgb(0%, 0%, 0%)" stroke-opacity="1" stroke-miterlimit="10" d="M 0.000125 -6.378156 L 0.000125 6.379656 " transform="matrix(1, 0, 0, -1, 6.828, 50.407)"/>
<g fill="rgb(0%, 0%, 0%)" fill-opacity="1">
<use xlink:href="#glyph-2-0" x="3.902" y="68.589"/>
</g>
<path fill="none" stroke-width="0.3985" stroke-linecap="butt" stroke-linejoin="miter" stroke="rgb(0%, 0%, 0%)" stroke-opacity="1" stroke-miterlimit="10" d="M 42.519656 -6.378156 L 42.519656 6.379656 " transform="matrix(1, 0, 0, -1, 6.828, 50.407)"/>
<g fill="rgb(0%, 0%, 0%)" fill-opacity="1">
<use xlink:href="#glyph-2-1" x="46.421" y="68.589"/>
</g>
<path fill="none" stroke-width="0.3985" stroke-linecap="butt" stroke-linejoin="miter" stroke="rgb(0%, 0%, 0%)" stroke-opacity="1" stroke-miterlimit="10" d="M 85.039187 -6.378156 L 85.039187 6.379656 " transform="matrix(1, 0, 0, -1, 6.828, 50.407)"/>
<g fill="rgb(0%, 0%, 0%)" fill-opacity="1">
<use xlink:href="#glyph-2-2" x="88.941" y="68.589"/>
</g>
<path fill="none" stroke-width="0.3985" stroke-linecap="butt" stroke-linejoin="miter" stroke="rgb(0%, 0%, 0%)" stroke-opacity="1" stroke-miterlimit="10" d="M 127.558719 -6.378156 L 127.558719 6.379656 " transform="matrix(1, 0, 0, -1, 6.828, 50.407)"/>
<g fill="rgb(0%, 0%, 0%)" fill-opacity="1">
<use xlink:href="#glyph-2-3" x="131.461" y="68.59"/>
</g>
<path fill="none" stroke-width="0.3985" stroke-linecap="butt" stroke-linejoin="miter" stroke="rgb(0%, 0%, 0%)" stroke-opacity="1" stroke-miterlimit="10" d="M 170.082156 -6.378156 L 170.082156 6.379656 " transform="matrix(1, 0, 0, -1, 6.828, 50.407)"/>
<g fill="rgb(0%, 0%, 0%)" fill-opacity="1">
<use xlink:href="#glyph-2-4" x="173.98" y="68.59"/>
</g>
<path fill="none" stroke-width="0.3985" stroke-linecap="butt" stroke-linejoin="miter" stroke="rgb(0%, 0%, 0%)" stroke-opacity="1" stroke-miterlimit="10" d="M 212.601687 -6.378156 L 212.601687 6.379656 " transform="matrix(1, 0, 0, -1, 6.828, 50.407)"/>
<g fill="rgb(0%, 0%, 0%)" fill-opacity="1">
<use xlink:href="#glyph-2-5" x="216.5" y="68.59"/>
</g>
<path fill="none" stroke-width="0.3985" stroke-linecap="butt" stroke-linejoin="miter" stroke="rgb(0%, 0%, 0%)" stroke-opacity="1" stroke-miterlimit="10" d="M 255.121219 -6.378156 L 255.121219 6.379656 " transform="matrix(1, 0, 0, -1, 6.828, 50.407)"/>
<g fill="rgb(0%, 0%, 0%)" fill-opacity="1">
<use xlink:href="#glyph-2-6" x="259.02" y="68.59"/>
</g>
<path fill="none" stroke-width="0.3985" stroke-linecap="butt" stroke-linejoin="miter" stroke="rgb(0%, 0%, 0%)" stroke-opacity="1" stroke-miterlimit="10" d="M 297.64075 -6.378156 L 297.64075 6.379656 " transform="matrix(1, 0, 0, -1, 6.828, 50.407)"/>
<g fill="rgb(0%, 0%, 0%)" fill-opacity="1">
<use xlink:href="#glyph-2-7" x="301.539" y="68.59"/>
</g>
<path fill="none" stroke-width="0.3985" stroke-linecap="butt" stroke-linejoin="miter" stroke="rgb(0%, 0%, 0%)" stroke-opacity="1" stroke-miterlimit="10" d="M 340.160281 -6.378156 L 340.160281 6.379656 " transform="matrix(1, 0, 0, -1, 6.828, 50.407)"/>
<g fill="rgb(0%, 0%, 0%)" fill-opacity="1">
<use xlink:href="#glyph-2-8" x="344.059" y="68.59"/>
</g>
<path fill="none" stroke-width="0.3985" stroke-linecap="butt" stroke-linejoin="miter" stroke="rgb(0%, 0%, 0%)" stroke-opacity="1" stroke-miterlimit="10" d="M 382.683719 -6.378156 L 382.683719 6.379656 " transform="matrix(1, 0, 0, -1, 6.828, 50.407)"/>
<g fill="rgb(0%, 0%, 0%)" fill-opacity="1">
<use xlink:href="#glyph-2-9" x="386.579" y="68.59"/>
</g>
<path fill="none" stroke-width="0.3985" stroke-linecap="butt" stroke-linejoin="miter" stroke="rgb(0%, 0%, 0%)" stroke-opacity="1" stroke-miterlimit="10" d="M 425.20325 -6.378156 L 425.20325 6.379656 " transform="matrix(1, 0, 0, -1, 6.828, 50.407)"/>
<g fill="rgb(0%, 0%, 0%)" fill-opacity="1">
<use xlink:href="#glyph-2-1" x="426.172" y="68.59"/>
<use xlink:href="#glyph-2-0" x="432.025266" y="68.59"/>
</g>
<path fill="none" stroke-width="2.98883" stroke-linecap="butt" stroke-linejoin="miter" stroke="rgb(0%, 67.83905%, 93.728638%)" stroke-opacity="1" stroke-miterlimit="10" d="M 106.300906 0.00075 L 148.820437 0.00075 " transform="matrix(1, 0, 0, -1, 6.828, 50.407)"/>
<path fill-rule="nonzero" fill="rgb(0%, 67.83905%, 93.728638%)" fill-opacity="1" stroke-width="0.79701" stroke-linecap="butt" stroke-linejoin="miter" stroke="rgb(0%, 0%, 0%)" stroke-opacity="1" stroke-miterlimit="10" d="M 110.785281 0.00075 C 110.785281 2.477313 108.777469 4.485125 106.300906 4.485125 C 103.824344 4.485125 101.816531 2.477313 101.816531 0.00075 C 101.816531 -2.475812 103.824344 -4.483625 106.300906 -4.483625 C 108.777469 -4.483625 110.785281 -2.475812 110.785281 0.00075 Z M 110.785281 0.00075 " transform="matrix(1, 0, 0, -1, 6.828, 50.407)"/>
<path fill-rule="nonzero" fill="rgb(0%, 67.83905%, 93.728638%)" fill-opacity="1" stroke-width="0.79701" stroke-linecap="butt" stroke-linejoin="miter" stroke="rgb(0%, 0%, 0%)" stroke-opacity="1" stroke-miterlimit="10" d="M 153.304812 0.00075 C 153.304812 2.477313 151.297 4.485125 148.820437 4.485125 C 146.343875 4.485125 144.336062 2.477313 144.336062 0.00075 C 144.336062 -2.475812 146.343875 -4.483625 148.820437 -4.483625 C 151.297 -4.483625 153.304812 -2.475812 153.304812 0.00075 Z M 153.304812 0.00075 " transform="matrix(1, 0, 0, -1, 6.828, 50.407)"/>
<path fill-rule="nonzero" fill="rgb(100%, 50%, 0%)" fill-opacity="1" stroke-width="0.79701" stroke-linecap="butt" stroke-linejoin="miter" stroke="rgb(0%, 0%, 0%)" stroke-opacity="1" stroke-miterlimit="10" d="M 134.285281 0.00075 C 134.285281 3.715594 131.273562 6.723406 127.558719 6.723406 C 123.847781 6.723406 120.836062 3.715594 120.836062 0.00075 C 120.836062 -3.714094 123.847781 -6.725812 127.558719 -6.725812 C 131.273562 -6.725812 134.285281 -3.714094 134.285281 0.00075 Z M 134.285281 0.00075 " transform="matrix(1, 0, 0, -1, 6.828, 50.407)"/>
</svg>
